<svg width="76" height="32" viewBox="0 0 76 32" fill="none" xmlns="http://www.w3.org/2000/svg">
<path d="M24.4063 7.88281H20.0342V23.5594H24.4063V7.88281Z" fill="#0054FF"/>
<path d="M57.1684 7.48375C55.2013 7.48375 53.7341 8.3974 52.7295 9.66133V0.402344H48.3574V23.562H52.7295V14.7464C52.7295 12.5737 54.125 11.0624 56.2207 11.0624C58.3165 11.0624 59.4423 12.4023 59.4423 14.8126V23.562H63.8144V14.45C63.8144 10.2688 60.917 7.48375 57.1684 7.48375Z" fill="#0054FF"/>
<path d="M40.0813 7.88609V9.86771C38.9036 8.43967 37.2631 7.48438 35.2688 7.48438C30.5132 7.48438 27.7939 11.33 27.7939 15.7244C27.7939 20.1187 30.5132 23.9644 35.2688 23.9644C37.1864 23.9644 38.7774 23.0801 39.9452 21.7403V24.3C39.9452 26.8621 38.812 28.3048 35.9938 28.3048C33.9401 28.3048 32.5199 27.4573 31.9508 25.6864L28.2393 27.1634C29.2488 30.0978 32.4877 32.0011 35.9938 32.0011C40.7172 32.0011 44.3173 29.0446 44.3173 24.2975V7.88609H40.0813ZM35.9938 20.2657C33.3809 20.2657 32.166 18.2351 32.166 15.7244C32.166 13.2137 33.3809 11.1831 35.9938 11.1831C38.3518 11.1831 39.9452 12.9859 39.9452 15.7244C39.9452 18.4629 38.3518 20.2657 35.9938 20.2657Z" fill="#0054FF"/>
<path d="M75.2929 11.4502V7.88623H72.1976V2.39453H67.8255V7.88623H65.6357V11.4502H67.8255V18.2965C67.8255 21.8335 70.6561 23.9645 73.9568 23.9645C74.4047 23.9645 74.8723 23.9106 75.2905 23.8274V20.2879C75.2905 20.2879 75.0109 20.3442 74.6744 20.3442C73.3209 20.3442 72.1976 19.7588 72.1976 17.9584V11.4478H75.2929V11.4502Z" fill="#0054FF"/>
<path d="M22.2221 4.78626C23.5572 4.78626 24.6395 3.71482 24.6395 2.39313C24.6395 1.07144 23.5572 0 22.2221 0C20.887 0 19.8047 1.07144 19.8047 2.39313C19.8047 3.71482 20.887 4.78626 22.2221 4.78626Z" fill="#0054FF"/>
<path d="M16.6471 15.7244C16.6471 11.1414 13.047 7.48438 8.32355 7.48438C3.60011 7.48438 0 11.1414 0 15.7244C0 20.3073 3.60011 23.9644 8.32355 23.9644C11.0626 23.9644 13.2647 22.8597 14.7221 21.1475L11.8123 18.9062C10.9117 19.9473 10.0457 20.3882 8.32355 20.3882C6.28225 20.3882 5.03025 19.0924 4.57498 17.3141H16.4962C16.5927 16.7997 16.6471 16.2706 16.6471 15.7268V15.7244ZM8.32355 11.0606C10.4317 11.0606 11.6465 12.3539 12.082 14.1347H4.56509C5.00304 12.3539 6.2204 11.0606 8.32355 11.0606Z" fill="#0054FF"/>
</svg>
